A man, Jerzy, enters a train set for the Baltic coast. He seems to be on the run from something. He has to share sleeping-compartment with a woman who also seems to be on the run. Eventually we get to know that the police are looking for an escaped murderer. Is it really Jerzy they are looking for? From IMDb
  
http://www.imdb.com/title/tt0053176/

General
Complete name                            : Jerzy Kawalerowicz - Pociag (1959) BR Rip XviDPociag.avi
Format                                   : AVI
Format/Info                              : Audio Video Interleave
File size                                : 1.16 GiB
Duration                                 : 1h 37mn
Overall bit rate                         : 1 709 Kbps
Writing application                      : VirtualDubMod 1.5.10.2 (build 2540/release)
Writing library                          : VirtualDubMod build 2540/release

Video
ID                                       : 0
Format                                   : MPEG-4 Visual
Format profile                           : Advanced Simple@L5
Format settings, BVOP                    : 2
Format settings, QPel                    : No
Format settings, GMC                     : No warppoints
Format settings, Matrix                  : Default (H.263)
Codec ID                                 : XVID
Codec ID/Hint                            : XviD
Duration                                 : 1h 37mn
Bit rate                                 : 1 508 Kbps
Width                                    : 640 pixels
Height                                   : 488 pixels
Display aspect ratio                     : 4:3
Frame rate                               : 23.976 fps
Color space                              : YUV
Chroma subsampling                       : 4:2:0
Bit depth                                : 8 bits
Scan type                                : Progressive
Compression mode                         : Lossy
Bits/(Pixel*Frame)                       : 0.201
Stream size                              : 1.02 GiB (88%)
Writing library                          : XviD 1.2.1 (UTC 2008-12-04)

Audio
ID                                       : 1
Format                                   : AC-3
Format/Info                              : Audio Coding 3
Mode extension                           : CM (complete main)
Format settings, Endianness              : Big
Codec ID                                 : 2000
Duration                                 : 1h 37mn
Bit rate mode                            : Constant
Bit rate                                 : 192 Kbps
Channel(s)                               : 2 channels
Channel positions                        : Front: L R
Sampling rate                            : 48.0 KHz
Bit depth                                : 16 bits
Compression mode                         : Lossy
Stream size                              : 133 MiB (11%)
Alignment                                : Split accross interleaves
Interleave, duration                     : 42 ms (1.00 video frame)
Interleave, preload duration             : 500 ms

